<svg xmlns="http://www.w3.org/2000/svg" viewBox="0 0 280 80" role="img" aria-labelledby="title desc">
  <title id="title">Joys Box logo</title>
  <desc id="desc">A colorful box mark followed by the Joys Box wordmark.</desc>
  <defs>
    <linearGradient id="ribbon" x1="18" y1="63" x2="63" y2="18" gradientUnits="userSpaceOnUse">
      <stop offset="0" stop-color="#ff4d87"/>
      <stop offset="0.52" stop-color="#f21778"/>
      <stop offset="1" stop-color="#c514ff"/>
    </linearGradient>
    <linearGradient id="corner" x1="14" y1="12" x2="38" y2="36" gradientUnits="userSpaceOnUse">
      <stop offset="0" stop-color="#ffe45e"/>
      <stop offset="1" stop-color="#ffba32"/>
    </linearGradient>
    <linearGradient id="side" x1="12" y1="36" x2="36" y2="66" gradientUnits="userSpaceOnUse">
      <stop offset="0" stop-color="#26f0c3"/>
      <stop offset="1" stop-color="#10c8dd"/>
    </linearGradient>
    <linearGradient id="base" x1="32" y1="69" x2="70" y2="31" gradientUnits="userSpaceOnUse">
      <stop offset="0" stop-color="#20c9f4"/>
      <stop offset="1" stop-color="#5778ff"/>
    </linearGradient>
  </defs>
  <path fill="url(#corner)" d="M10 9h32v27H10z"/>
  <path fill="url(#side)" d="M10 36h32v35H10z"/>
  <path fill="url(#base)" d="M42 36h10c12.8 0 23 7.8 23 17.5S64.8 71 52 71H26V46h16z"/>
  <path fill="url(#ribbon)" d="M56 12c5.2 0 9.5 4.3 9.5 9.5 0 2.5-1 4.9-2.8 6.7L31 59.9a9.5 9.5 0 0 1-13.4-13.4l31.7-31.7A9.5 9.5 0 0 1 56 12z"/>
  <path fill="#fff" fill-opacity="0.17" d="M10 9h32v5H10z"/>
  <path fill="#fff" fill-opacity="0.18" d="M49.3 14.8A9.5 9.5 0 0 1 63.6 16.6L20.8 59.4a9.5 9.5 0 0 1-3.2-12.9z"/>
  <text x="92" y="52" fill="#111827" font-family="Inter, ui-sans-serif, system-ui, -apple-system, BlinkMacSystemFont, 'Segoe UI', sans-serif" font-size="34" font-weight="900" letter-spacing="0">Joys Box</text>
</svg>
